<svg width="60" height="60" viewBox="0 0 60 60" fill="none" xmlns="http://www.w3.org/2000/svg">
<g id="mission 1" clip-path="url(#clip0_1349_3705)">
<path id="Vector" d="M30.0999 20.9326C30.9257 20.9326 31.5945 20.2633 31.5945 19.438C31.5945 18.6126 30.9257 17.9434 30.0999 17.9434C23.4966 17.9434 18.1436 23.2964 18.1436 29.9001C18.1436 36.5034 23.4966 41.8564 30.0999 41.8564C36.7036 41.8564 42.0566 36.5034 42.0566 29.9001C42.0566 29.0743 41.3874 28.4055 40.562 28.4055C39.7367 28.4055 39.0674 29.0743 39.0674 29.9001C39.0674 34.8527 35.0529 38.8677 30.0999 38.8677C25.1473 38.8677 21.1323 34.8527 21.1323 29.9001C21.1323 24.9471 25.1473 20.9326 30.0999 20.9326Z" fill="#26A9E0"/>
<path id="Vector_2" d="M58.618 21.0228C58.3584 20.2386 57.5125 19.8134 56.7279 20.0729C55.9616 20.3265 55.535 21.1423 55.7634 21.9163C60.233 36.1496 52.3183 51.3111 38.085 55.7807C23.8523 60.2503 8.69068 52.3356 4.22108 38.1024C-0.248977 23.8692 7.6662 8.70759 21.899 4.238C27.1678 2.58364 32.8166 2.58364 38.085 4.238C38.876 4.47649 39.7105 4.0288 39.949 3.23778C40.1839 2.45867 39.7531 1.63515 38.979 1.38338C23.1748 -3.5751 6.34281 5.21715 1.38432 21.0219C-3.57417 36.8261 5.21854 53.6581 21.0228 58.6166C36.8275 63.5751 53.659 54.7828 58.6175 38.9781C60.4513 33.1334 60.4513 26.8675 58.618 21.0228Z" fill="#26A9E0"/>
<path id="Vector_3" d="M32.947 10.6775C32.9548 9.82657 32.3011 9.1152 31.4524 9.05157C31.0061 9.01358 30.5593 8.97559 30.1011 8.97559C18.5449 8.97559 9.17676 18.3437 9.17676 29.8999C9.17676 41.4557 18.5449 50.8238 30.1011 50.8238C41.6569 50.8238 51.025 41.4557 51.025 29.8999C51.025 29.3593 50.992 28.8192 50.9257 28.2827C50.8062 27.4623 50.0445 26.8943 49.2242 27.0137C48.4039 27.1328 47.8358 27.8949 47.9548 28.7152C47.9594 28.7464 47.9649 28.777 47.9713 28.8082C48.0038 29.1703 48.0358 29.5292 48.0358 29.899C48.0363 39.8046 40.0066 47.8342 30.1016 47.8351C20.196 47.8356 12.1664 39.8055 12.166 29.9004C12.1655 19.9953 20.1947 11.9652 30.1002 11.9648H30.1007C30.4714 11.9648 30.8308 11.9968 31.192 12.0289L31.4721 12.0522C32.2531 12.0856 32.9131 11.4796 32.9461 10.6986C32.9466 10.6913 32.9466 10.6844 32.947 10.6775Z" fill="#26A9E0"/>
<path id="Vector_4" d="M39.0683 13.4598V18.8193L29.0442 28.8433C28.4504 29.4169 28.434 30.3631 29.0075 30.9568C29.5811 31.5506 30.5273 31.567 31.121 30.9935C31.1334 30.9816 31.1458 30.9692 31.1577 30.9568L41.1818 20.9327H46.5412C46.9377 20.9327 47.3176 20.7753 47.5982 20.4947L56.5653 11.5271C57.149 10.9434 57.149 9.99724 56.5653 9.4136C56.2852 9.13345 55.9052 8.97597 55.5088 8.97597H51.025V4.49219C51.025 3.66684 50.3558 2.99759 49.53 2.99805C49.134 2.99805 48.7541 3.15552 48.4739 3.43567L39.5063 12.4032C39.2257 12.6834 39.0683 13.0633 39.0683 13.4598ZM42.0575 14.0787L48.0358 8.10027V10.4706C48.0358 11.2959 48.7051 11.9652 49.5304 11.9652H51.9007L45.9223 17.9436H42.0575V14.0787Z" fill="#26A9E0"/>
</g>
<defs>
<clipPath id="clip0_1349_3705">
<rect width="60" height="60" fill="white"/>
</clipPath>
</defs>
</svg>
