<svg width="60" height="60" viewBox="0 0 60 60" fill="none" xmlns="http://www.w3.org/2000/svg">
<g id="value 2">
<g id="Group">
<g id="Group_2">
<path id="Vector" d="M53.2332 30.3057L46.7055 20.2254C46.1996 19.4441 45.3418 18.9775 44.411 18.9775H15.6102C14.6808 18.9775 13.8238 19.4429 13.3176 20.2222L6.76968 30.3038C6.10054 31.3339 6.2039 32.694 7.02104 33.6111L27.958 57.1166C28.4762 57.6983 29.2201 58.032 29.9992 58.032C29.9991 58.032 29.9993 58.032 29.9992 58.032C30.7781 58.032 31.5224 57.6984 32.0406 57.1167L52.9799 33.6098C53.7958 32.6937 53.9 31.3351 53.2332 30.3057ZM43.0887 21.3212L37.5989 29.8102L32.1058 21.3212H43.0887ZM35.4451 30.796H24.5532L29.9992 22.3797L35.4451 30.796ZM27.8925 21.3214L22.4146 29.7871L16.9385 21.3214H27.8925ZM14.7716 22.2864L20.2759 30.796H9.24468L14.7716 22.2864ZM9.73968 33.1398H21.534L27.7703 53.3821L9.73968 33.1398ZM29.9992 52.6565L23.9864 33.1398H36.0119L29.9992 52.6565ZM32.228 53.3829L38.4644 33.1399H50.2598L32.228 53.3829ZM39.7527 30.796L45.2519 22.2923L50.7585 30.796H39.7527Z" fill="#26A9E0"/>
</g>
</g>
<g id="Group_3">
<g id="Group_4">
<path id="Vector_2" d="M3.55465 30.7959H1.17188C0.524766 30.7959 0 31.3205 0 31.9678C0 32.615 0.524766 33.1396 1.17188 33.1396H3.55465C4.20176 33.1396 4.72652 32.615 4.72652 31.9678C4.72652 31.3205 4.20176 30.7959 3.55465 30.7959Z" fill="#26A9E0"/>
</g>
</g>
<g id="Group_5">
<g id="Group_6">
<path id="Vector_3" d="M58.8281 30.7959H56.4453C55.7982 30.7959 55.2734 31.3205 55.2734 31.9678C55.2734 32.615 55.7982 33.1396 56.4453 33.1396H58.8281C59.4752 33.1396 60 32.615 60 31.9678C60 31.3205 59.4752 30.7959 58.8281 30.7959Z" fill="#26A9E0"/>
</g>
</g>
<g id="Group_7">
<g id="Group_8">
<path id="Vector_4" d="M51.2282 10.7612C50.7704 10.3036 50.0286 10.3036 49.5708 10.7612L45.6782 14.6538C45.2206 15.1114 45.2206 15.8534 45.6782 16.3111C45.9072 16.5399 46.207 16.6543 46.5069 16.6543C46.8069 16.6543 47.1067 16.5398 47.3356 16.3111L51.2282 12.4184C51.6858 11.9608 51.6858 11.2189 51.2282 10.7612Z" fill="#26A9E0"/>
</g>
</g>
<g id="Group_9">
<g id="Group_10">
<path id="Vector_5" d="M14.3726 14.6324L10.4801 10.7397C10.0226 10.2821 9.28079 10.2821 8.82271 10.7397C8.36509 11.1973 8.36509 11.9393 8.82271 12.397L12.7153 16.2896C12.9442 16.5184 13.2441 16.6328 13.544 16.6328C13.8438 16.6328 14.1437 16.5183 14.3726 16.2896C14.8302 15.8321 14.8302 15.0899 14.3726 14.6324Z" fill="#26A9E0"/>
</g>
</g>
<g id="Group_11">
<g id="Group_12">
<path id="Vector_6" d="M30.0293 1.96777C29.3822 1.96777 28.8574 2.49242 28.8574 3.13965V10.7765C28.8574 11.4237 29.3821 11.9484 30.0293 11.9484C30.6764 11.9484 31.2012 11.4237 31.2012 10.7765V3.13965C31.2012 2.49254 30.6764 1.96777 30.0293 1.96777Z" fill="#26A9E0"/>
</g>
</g>
<g id="Group_13">
<g id="Group_14">
<path id="Vector_7" d="M30.8577 13.9127C30.6398 13.6947 30.3375 13.5693 30.0293 13.5693C29.7211 13.5693 29.4187 13.6947 29.2008 13.9127C28.9828 14.1307 28.8574 14.433 28.8574 14.7412C28.8574 15.0506 28.9827 15.3518 29.2008 15.5697C29.4187 15.7889 29.7211 15.9131 30.0293 15.9131C30.3375 15.9131 30.6398 15.7889 30.8577 15.5697C31.0768 15.3518 31.2012 15.0494 31.2012 14.7412C31.2012 14.433 31.0768 14.1308 30.8577 13.9127Z" fill="#26A9E0"/>
</g>
</g>
</g>
</svg>
