<svg width="60" height="60" viewBox="0 0 60 60" fill="none" xmlns="http://www.w3.org/2000/svg">
<g id="shared-vision 1" clip-path="url(#clip0_1349_3715)">
<g id="g321">
<g id="g323">
<g id="Clip path group">
<mask id="mask0_1349_3715" style="mask-type:luminance" maskUnits="userSpaceOnUse" x="0" y="0" width="60" height="60">
<g id="clipPath329">
<path id="path327" d="M0 0H60V60H0V0Z" fill="white"/>
</g>
</mask>
<g mask="url(#mask0_1349_3715)">
<g id="g325">
<g id="g331">
<path id="path333" d="M23.5969 23.1527C23.4152 23.0355 23.1995 22.9688 22.9688 22.9688C22.3219 22.9688 21.7969 23.4937 21.7969 24.1406C21.7969 24.4477 21.9151 24.7277 22.1086 24.9363C22.323 25.1684 22.6288 25.3125 22.9688 25.3125C23.6155 25.3125 24.1406 24.7875 24.1406 24.1406C24.1406 23.7246 23.9238 23.3602 23.5969 23.1527Z" fill="#26A9E0"/>
</g>
<g id="g335">
<path id="path337" d="M30 1.17188V8.90625" stroke="#26A9E0" stroke-width="3" stroke-linecap="round" stroke-linejoin="round"/>
</g>
<g id="g339">
<path id="path341" d="M30 51.0938V58.8281" stroke="#26A9E0" stroke-width="3" stroke-linecap="round" stroke-linejoin="round"/>
</g>
<g id="g343">
<path id="path345" d="M7.76855 10.1117L12.7408 15.084" stroke="#26A9E0" stroke-width="3" stroke-linecap="round" stroke-linejoin="round"/>
</g>
<g id="g347">
<path id="path349" d="M47.2598 46.0873L52.232 51.0596" stroke="#26A9E0" stroke-width="3" stroke-linecap="round" stroke-linejoin="round"/>
</g>
<g id="g351">
<path id="path353" d="M52.232 10.1117L47.2598 15.084" stroke="#26A9E0" stroke-width="3" stroke-linecap="round" stroke-linejoin="round"/>
</g>
<g id="g355">
<path id="path357" d="M12.7408 46.0873L7.76855 51.0596" stroke="#26A9E0" stroke-width="3" stroke-linecap="round" stroke-linejoin="round"/>
</g>
<g id="g359">
<path id="path361" d="M55.7812 30C55.7812 30 45.5332 45.2344 30 45.2344C14.4668 45.2344 4.21875 30 4.21875 30C4.21875 30 14.4668 14.7656 30 14.7656C45.5332 14.7656 55.7812 30 55.7812 30Z" stroke="#26A9E0" stroke-width="3" stroke-linecap="round" stroke-linejoin="round"/>
</g>
<g id="g363">
<path id="path365" d="M26.6496 21.2414C26.6917 21.225 26.734 21.2098 26.7762 21.1945C26.8229 21.177 26.8699 21.1605 26.9168 21.1441C26.959 21.1289 27.0012 21.1148 27.0445 21.1008C27.0996 21.082 27.157 21.0633 27.2133 21.0457C27.2859 21.0234 27.3586 21.0012 27.4324 20.9812C27.5039 20.9602 27.5766 20.9402 27.6504 20.9215C27.7277 20.9016 27.805 20.8828 27.8824 20.8652C27.9551 20.8488 28.0266 20.8324 28.0992 20.8184C28.1578 20.8055 28.2164 20.7937 28.2762 20.7832C28.3277 20.7738 28.3793 20.7645 28.4309 20.7562C28.4589 20.7504 28.4882 20.7457 28.5175 20.7422C28.5703 20.7328 28.623 20.7258 28.6758 20.7187C28.6898 20.7164 28.7027 20.7141 28.7168 20.7129C28.7613 20.7059 28.807 20.7 28.8527 20.6941C28.902 20.6883 28.9512 20.6824 29.0004 20.6777L29.0707 20.6707C29.1211 20.6648 29.1727 20.6602 29.223 20.6566C29.2499 20.6543 29.277 20.652 29.3038 20.6508C29.3378 20.6473 29.373 20.6449 29.407 20.6437C29.4574 20.6402 29.5089 20.6379 29.5594 20.6355C29.625 20.632 29.6906 20.6297 29.7574 20.6285C29.8371 20.6262 29.919 20.625 30 20.625C35.1773 20.625 39.375 24.8227 39.375 30C39.375 31.6184 38.9648 33.1406 38.243 34.4684C38.1715 34.5996 38.0975 34.7297 38.0203 34.8562C37.9804 34.923 37.9395 34.9875 37.8971 35.0531C37.8223 35.1703 37.7449 35.2852 37.6652 35.3988C37.657 35.4105 37.6487 35.4211 37.6406 35.4328C37.4695 35.6742 37.2867 35.9074 37.0921 36.1301C36.9456 36.3 36.7922 36.4652 36.6327 36.6246C36.4887 36.7687 36.3397 36.9094 36.1863 37.043C35.543 37.609 34.8223 38.0883 34.0406 38.4609C33.9117 38.523 33.7815 38.5816 33.6491 38.6379C33.3691 38.7562 33.0809 38.8617 32.7879 38.9531C32.4938 39.0445 32.1949 39.1219 31.8891 39.184C31.2785 39.3094 30.6468 39.375 30 39.375C24.8227 39.375 20.625 35.1773 20.625 30C20.625 29.9191 20.6262 29.8383 20.6285 29.7586C20.6297 29.693 20.6319 29.6285 20.6355 29.5629C20.6379 29.502 20.6413 29.441 20.6449 29.3812C20.6461 29.3637 20.6473 29.3461 20.6484 29.3285C20.6531 29.2723 20.6565 29.216 20.6625 29.1598C20.6637 29.1457 20.6648 29.1328 20.6659 29.1187C20.6719 29.052 20.6789 28.9852 20.6871 28.9195V28.9172C20.6952 28.8469 20.7035 28.7766 20.7141 28.7062C20.7211 28.6535 20.7281 28.6008 20.7375 28.548C20.7469 28.4777 20.7585 28.4098 20.7715 28.3406C20.7737 28.3219 20.7773 28.3043 20.7809 28.2855" stroke="#26A9E0" stroke-width="3" stroke-linecap="round" stroke-linejoin="round"/>
</g>
<g id="g367">
<path id="path369" d="M30 33.5156C28.0617 33.5156 26.4844 31.9383 26.4844 30C26.4844 28.0617 28.0617 26.4844 30 26.4844C31.9383 26.4844 33.5156 28.0617 33.5156 30C33.5156 31.9383 31.9383 33.5156 30 33.5156Z" stroke="#26A9E0" stroke-width="3" stroke-linecap="round" stroke-linejoin="round"/>
</g>
</g>
</g>
</g>
</g>
</g>
</g>
<defs>
<clipPath id="clip0_1349_3715">
<rect width="60" height="60" fill="white"/>
</clipPath>
</defs>
</svg>
