<svg width="96" height="32" viewBox="0 0 96 32" fill="none" xmlns="http://www.w3.org/2000/svg">
<g clip-path="url(#clip0_1831_789)">
<path d="M2.84826 31.9995C1.27828 31.9995 0 30.7046 0 29.1142V10.6286C0 9.03811 1.27828 7.74316 2.84826 7.74316C4.42681 7.74316 5.69651 9.03811 5.69651 10.6286V29.1142C5.69651 30.7046 4.42681 31.9995 2.84826 31.9995Z" fill="#26A9E0"/>
<path d="M30.0011 9.64648C26.5437 9.64648 23.7297 12.4971 23.7297 15.9996C23.7297 19.502 26.5437 22.3526 30.0011 22.3526C33.4584 22.3526 36.2724 19.502 36.2724 15.9996C36.2724 12.4971 33.4584 9.64648 30.0011 9.64648Z" fill="#26A9E0"/>
<path d="M80.206 0H30.0011C21.2934 0 14.207 7.17871 14.207 16C14.207 24.8213 21.2934 32 30.0011 32H43.7019V6.805C43.7019 5.20587 44.9802 3.91961 46.5502 3.91961C47.777 3.91961 48.8065 4.70179 49.2097 5.79685C51.0714 4.58012 53.2934 3.86746 55.6698 3.86746C62.2671 3.86746 67.6376 9.30798 67.6376 15.9913C67.6376 22.6833 62.2671 28.1238 55.6698 28.1238C53.3706 28.1238 51.2258 27.4546 49.3985 26.3074V32H68.2296V6.805C68.2296 5.20587 69.5078 3.91961 71.0778 3.91961C72.3046 3.91961 73.3341 4.70179 73.7373 5.80554C75.599 4.58881 77.821 3.87615 80.1974 3.87615C86.8033 3.87615 92.1652 9.31668 92.1652 16C92.1652 22.692 86.7947 28.1325 80.1974 28.1325C77.8982 28.1325 75.7534 27.4546 73.9261 26.3161V32.0087H80.1974C88.9052 32.0087 95.9915 24.83 95.9915 16.0087C96.0001 7.17871 88.9137 0 80.206 0ZM41.969 25.2385C41.969 26.8376 40.6907 28.1325 39.1207 28.1325C37.8767 28.1325 36.8387 27.3243 36.444 26.2118C34.5824 27.4286 32.3775 28.1325 30.0011 28.1325C23.3952 28.1325 18.0333 22.692 18.0333 16C18.0333 9.31668 23.4038 3.87615 30.0011 3.87615C32.3775 3.87615 34.5824 4.58881 36.444 5.79685C36.8387 4.67572 37.8853 3.87615 39.1207 3.87615C40.6907 3.87615 41.969 5.1711 41.969 6.76154V25.2385Z" fill="#26A9E0"/>
<path d="M61.9411 15.9996C61.9411 12.4971 59.1271 9.64648 55.6698 9.64648C52.2124 9.64648 49.3984 12.4971 49.3984 15.9996C49.3984 19.502 52.2124 22.3526 55.6698 22.3526C59.1271 22.3526 61.9411 19.502 61.9411 15.9996Z" fill="#26A9E0"/>
<path d="M86.4772 15.9996C86.4772 12.4971 83.6633 9.64648 80.2059 9.64648C76.7485 9.64648 73.9346 12.4971 73.9346 15.9996C73.9346 19.502 76.7485 22.3526 80.2059 22.3526C83.6633 22.3526 86.4772 19.502 86.4772 15.9996Z" fill="#26A9E0"/>
<path d="M5.69651 2.88539C5.69651 4.47583 4.41823 5.77078 2.84826 5.77078C1.27828 5.77078 0 4.47583 0 2.88539C0 1.28626 1.27828 0 2.84826 0C4.41823 0 5.69651 1.28626 5.69651 2.88539Z" fill="#26A9E0"/>
<path d="M14.207 29.1149C14.207 30.7053 12.9287 32.0003 11.3588 32.0003C9.78878 32.0003 8.5105 30.7053 8.5105 29.1149C8.5105 27.5244 9.78878 26.2295 11.3588 26.2295C12.9287 26.2295 14.207 27.5244 14.207 29.1149Z" fill="#26A9E0"/>
</g>
<defs>
<clipPath id="clip0_1831_789">
<rect width="96" height="32" fill="white"/>
</clipPath>
</defs>
</svg>
