<svg width="59" height="69" viewBox="0 0 59 69" fill="none" xmlns="http://www.w3.org/2000/svg">
<path d="M3.11491 12.888C4.29091 15.12 5.87491 15.768 7.07491 15.768C9.30691 15.792 10.5309 14.76 10.5309 13.32C10.5309 9.84 1.24291 11.376 1.24291 5.064C1.24291 2.016 3.93091 0.119998 7.43491 0.144C9.57091 0.144 12.3309 1.392 13.4829 4.44L10.6029 5.496C9.83491 3.48 8.41891 2.928 7.43491 2.928C5.70691 2.904 4.50691 3.84 4.50691 5.088C4.50691 8.52 13.7709 7.368 13.7709 13.32C13.7709 16.416 11.0829 18.576 7.07491 18.552C4.41091 18.552 1.98691 16.968 0.450907 14.4L3.11491 12.888ZM28.2283 0.335999V3.12H23.1403V18.336H19.8763V3.12H14.7403V0.335999H28.2283ZM42.8252 0.335999V3.12H33.0572V7.68H41.5532V10.464H33.0572V15.552H42.8252V18.336H29.7932V0.335999H42.8252ZM52.7604 9.816C54.5844 9.816 55.7364 8.52 55.7364 6.48C55.7364 4.44 54.5604 3.12 52.7604 3.12H48.3924V9.816H52.7604ZM45.1284 18.336V0.335999H52.8804C56.4564 0.335999 59.0004 2.856 59.0004 6.48C59.0004 10.104 56.4564 12.624 52.8804 12.624H48.3924V18.336H45.1284ZM17.8761 62.008C23.0281 62.008 26.3881 56.408 26.3881 47.728C26.3881 39.048 23.0281 33.448 17.8761 33.448C12.6681 33.448 9.30806 39.048 9.30806 47.728C9.30806 56.408 12.6681 62.008 17.8761 62.008ZM1.69206 47.728C1.69206 35.464 8.35606 26.84 17.8761 26.84C27.3401 26.84 34.0041 35.464 34.0041 47.728C34.0041 59.992 27.3401 68.672 17.8761 68.672C8.35606 68.672 1.69206 59.992 1.69206 47.728ZM54.4489 27.288V68.336L46.8329 68.224V35.184L38.8809 38.768L36.2489 32.16L46.8889 27.288H54.4489Z" fill="#C2E8F9"/>
</svg>
