<svg width="55" height="55" viewBox="0 0 55 55" fill="none" xmlns="http://www.w3.org/2000/svg">
<g id="meeting 1">
<g id="Layer_x0020_1">
<path id="Vector" fill-rule="evenodd" clip-rule="evenodd" d="M38.0273 32.7637H17.2949C16.8652 32.7637 16.543 32.4414 16.543 32.0117C16.543 31.582 16.8652 31.2598 17.2949 31.2598H38.0273C38.457 31.2598 38.7793 31.582 38.7793 32.0117C38.7793 32.4414 38.457 32.7637 38.0273 32.7637Z" fill="#234A80"/>
<path id="Vector_2" fill-rule="evenodd" clip-rule="evenodd" d="M27.6074 47.5879C27.1777 47.5879 26.8555 47.2656 26.8555 46.8359V32.0117C26.8555 31.582 27.1777 31.2598 27.6074 31.2598C28.0371 31.2598 28.3594 31.582 28.3594 32.0117V46.8359C28.3594 47.2656 28.0371 47.5879 27.6074 47.5879Z" fill="#234A80"/>
<path id="Vector_3" fill-rule="evenodd" clip-rule="evenodd" d="M54.248 47.5879H0.751953C0.322266 47.5879 0 47.2656 0 46.8359C0 46.4062 0.322266 46.084 0.751953 46.084H54.248C54.6777 46.084 55 46.4062 55 46.8359C55 47.2656 54.6777 47.5879 54.248 47.5879Z" fill="#234A80"/>
<path id="Vector_4" fill-rule="evenodd" clip-rule="evenodd" d="M39.6387 47.5879H35.6641C35.4492 47.5879 35.2344 47.4805 35.0195 47.2656C34.9121 47.0508 34.9121 46.8359 34.9121 46.6211L38.5645 33.4082C38.6719 33.0859 38.9941 32.8711 39.3164 32.8711H44.7949V29.2188L42.4316 30.5078C42.3242 30.6152 42.2168 30.6152 42.1094 30.6152H38.457C37.3828 30.6152 36.5234 29.7559 36.5234 28.6816C36.5234 27.5 37.3828 26.6406 38.457 26.6406H41.4648L44.6875 22.8809C44.7949 22.7734 45.0098 22.666 45.2246 22.666H49.3066C49.9512 22.666 50.3809 22.9883 50.5957 23.2031C51.0254 23.7402 51.0254 24.3848 51.0254 24.4922C50.918 26.9629 50.8105 33.5156 51.0254 34.5898C51.0254 35.3418 50.8105 35.8789 50.4883 36.0938C49.8438 36.8457 48.877 36.8457 48.7695 36.8457H42.5391L40.3906 46.9434C40.2832 47.373 39.9609 47.5879 39.6387 47.5879Z" fill="#234A80"/>
<path id="Vector_5" fill-rule="evenodd" clip-rule="evenodd" d="M47.8027 18.0469C47.0508 18.0469 46.4062 18.6914 46.4062 19.3359C46.4062 20.0879 47.0508 20.7324 47.8027 20.7324C48.5547 20.7324 49.1992 20.0879 49.1992 19.3359C49.1992 18.6914 48.5547 18.0469 47.8027 18.0469Z" fill="#234A80"/>
<path id="Vector_6" fill-rule="evenodd" clip-rule="evenodd" d="M47.8027 22.2363C46.1914 22.2363 44.9023 20.9473 44.9023 19.3359C44.9023 17.832 46.1914 16.543 47.8027 16.543C49.4141 16.543 50.7031 17.832 50.7031 19.3359C50.7031 20.9473 49.4141 22.2363 47.8027 22.2363Z" fill="#234A80"/>
<path id="Vector_7" fill-rule="evenodd" clip-rule="evenodd" d="M52.6367 47.5879C52.207 47.5879 51.8848 47.2656 51.8848 46.8359L51.7773 26.1035C51.7773 25.6738 52.0996 25.3516 52.5293 25.3516C52.959 25.3516 53.2812 25.6738 53.2812 26.1035L53.3887 46.8359C53.3887 47.2656 53.0664 47.5879 52.6367 47.5879Z" fill="#234A80"/>
<path id="Vector_8" fill-rule="evenodd" clip-rule="evenodd" d="M43.7207 47.5879C43.291 47.5879 42.9688 47.2656 42.9688 46.8359V38.5645C42.9688 38.1348 43.291 37.8125 43.7207 37.8125H52.5293C52.959 37.8125 53.2812 38.1348 53.2812 38.5645C53.2812 38.9941 52.959 39.3164 52.5293 39.3164H44.4727V46.8359C44.4727 47.2656 44.1504 47.5879 43.7207 47.5879Z" fill="#234A80"/>
<path id="Vector_9" fill-rule="evenodd" clip-rule="evenodd" d="M19.6581 47.5879H15.6834C15.3612 47.5879 15.0389 47.373 14.9315 46.9434L12.7831 36.8457H6.55259C6.44517 36.8457 5.37095 36.8457 4.72642 36.0938C4.51157 35.7715 4.18931 35.3418 4.29673 34.5898C4.51157 33.5156 4.40415 27.0703 4.29673 24.5996C4.29673 24.2773 4.18931 23.7402 4.61899 23.2031C4.83384 22.9883 5.26352 22.666 5.90806 22.666H10.0975C10.3124 22.666 10.5272 22.7734 10.6346 22.8809L13.8573 26.6406H16.7577C17.9393 26.6406 18.7987 27.5 18.7987 28.6816C18.7987 29.7559 17.9393 30.6152 16.7577 30.6152H13.2127C13.1053 30.6152 12.9979 30.6152 12.8905 30.5078L10.5272 29.2188V32.8711H16.0057C16.328 32.8711 16.6502 33.0859 16.7577 33.4082L20.41 46.6211C20.41 46.8359 20.41 47.0508 20.3026 47.2656C20.0877 47.4805 19.8729 47.5879 19.6581 47.5879Z" fill="#234A80"/>
<path id="Vector_10" fill-rule="evenodd" clip-rule="evenodd" d="M7.51953 18.0469C6.76758 18.0469 6.12305 18.6914 6.12305 19.3359C6.12305 20.0879 6.76758 20.7324 7.51953 20.7324C8.27148 20.7324 8.80859 20.0879 8.80859 19.3359C8.80859 18.6914 8.27148 18.0469 7.51953 18.0469Z" fill="#234A80"/>
<path id="Vector_11" fill-rule="evenodd" clip-rule="evenodd" d="M7.51953 22.2363C5.9082 22.2363 4.61914 20.9473 4.61914 19.3359C4.61914 17.832 5.9082 16.543 7.51953 16.543C9.02344 16.543 10.3125 17.832 10.3125 19.3359C10.3125 20.9473 9.13086 22.2363 7.51953 22.2363Z" fill="#234A80"/>
<path id="Vector_12" fill-rule="evenodd" clip-rule="evenodd" d="M2.68555 47.5879C2.25586 47.5879 1.93359 47.2656 1.93359 46.8359L2.04102 26.1035C2.04102 25.6738 2.36328 25.3516 2.79297 25.3516C3.22266 25.3516 3.54492 25.6738 3.54492 26.1035L3.4375 46.8359C3.4375 47.2656 3.11523 47.5879 2.68555 47.5879Z" fill="#234A80"/>
<path id="Vector_13" fill-rule="evenodd" clip-rule="evenodd" d="M11.6016 47.5879C11.1719 47.5879 10.8496 47.2656 10.8496 46.8359V39.3164H2.79297C2.36328 39.3164 2.04102 38.9941 2.04102 38.5645C2.04102 38.1348 2.36328 37.8125 2.79297 37.8125H11.6016C12.0312 37.8125 12.3535 38.1348 12.3535 38.5645V46.8359C12.3535 47.2656 12.0312 47.5879 11.6016 47.5879Z" fill="#234A80"/>
<path id="Vector_14" fill-rule="evenodd" clip-rule="evenodd" d="M18.9062 24.0625C18.7988 24.0625 18.6914 24.0625 18.584 23.9551C18.2617 23.8477 18.1543 23.6328 18.1543 23.3105V20.5176H17.0801C16.4355 20.5176 15.8984 19.9805 15.8984 19.2285V10.8496C15.8984 10.0977 16.4355 9.56055 17.0801 9.56055H25.5664V12.8906H18.0469C17.6172 12.8906 17.2949 13.2129 17.2949 13.6426C17.2949 14.0723 17.6172 14.3945 18.0469 14.3945H25.5664V15.6836H18.0469C17.6172 15.6836 17.2949 16.0059 17.2949 16.4355C17.2949 16.8652 17.6172 17.1875 18.0469 17.1875H25.5664C25.5664 18.4766 26.5332 19.5508 27.8223 19.873V20.5176H23.6328L19.3359 23.9551C19.2285 23.9551 19.1211 24.0625 18.9062 24.0625Z" fill="#26A9E0"/>
<path id="Vector_15" fill-rule="evenodd" clip-rule="evenodd" d="M30.0781 21.9141C29.9707 21.9141 29.8633 21.9141 29.7559 21.8066C29.4336 21.6992 29.3262 21.4844 29.3262 21.1621V18.3691H28.3594C27.6074 18.3691 27.0703 17.832 27.0703 17.0801V8.70117C27.0703 7.94922 27.6074 7.41211 28.3594 7.41211H42.6465C43.291 7.41211 43.8281 7.94922 43.8281 8.70117V17.0801C43.8281 17.832 43.291 18.3691 42.6465 18.3691H34.8047L30.5078 21.6992C30.4004 21.8066 30.1855 21.9141 30.0781 21.9141ZM40.7129 15.0391H31.0449C30.6152 15.0391 30.293 14.7168 30.293 14.2871C30.293 13.8574 30.6152 13.5352 31.0449 13.5352H40.7129C41.1426 13.5352 41.4648 13.8574 41.4648 14.2871C41.4648 14.7168 41.1426 15.0391 40.7129 15.0391ZM40.7129 12.2461H31.0449C30.6152 12.2461 30.293 11.9238 30.293 11.4941C30.293 11.0645 30.6152 10.7422 31.0449 10.7422H40.7129C41.1426 10.7422 41.4648 11.0645 41.4648 11.4941C41.4648 11.9238 41.1426 12.2461 40.7129 12.2461Z" fill="#26A9E0"/>
</g>
</g>
</svg>
