<svg width="171" height="95" viewBox="0 0 171 95" fill="none" xmlns="http://www.w3.org/2000/svg">
<g id="Group 1000003878">
<path id="Vector" d="M88.3695 20.2705L46.2888 39.8148V20.2864L88.3695 0.742188V20.2705Z" fill="black"/>
<path id="Vector_2" d="M130.833 20.2666L88.3694 39.8148V20.2904L130.833 0.742188V20.2666Z" fill="url(#paint0_linear_1381_3621)"/>
<g id="Vector_3">
<path d="M0.0234611 55.8352H6.73362L10.8473 67.8926H11.7154L15.8291 55.8352H22.5705V73.8083H17.8155V63.6271H17.401L13.913 73.8083H8.64967L5.16946 63.6271H4.76279V73.8083H0L0.0234611 55.8352Z" fill="black"/>
<path d="M25.6308 55.8352H41.3154V59.7374H30.5332V63.1244H40.9292V66.4959H30.5332V69.9066H41.3154V73.8083H25.6308V55.8352Z" fill="black"/>
<path d="M61.5905 59.8596H55.0257V73.8083H50.1831V59.8596H43.6106V55.8352H61.5905V59.8596Z" fill="black"/>
<path d="M73.9454 71.0064H65.3423L64.3282 73.8083H59.2952L66.2075 55.8352H73.0413L79.9529 73.8083H74.9206L73.9454 71.0064ZM72.6479 67.3865L70.1156 60.3813H69.2273L66.6793 67.3865H72.6479Z" fill="black"/>
<path d="M76.893 55.8352H81.9254L86.9425 69.2471H87.5244L92.5178 55.8352H97.5507L90.6385 73.8083H83.8047L76.893 55.8352Z" fill="black"/>
<path d="M99.0807 55.8352H114.765V59.7374H103.975V63.1244H114.379V66.4959H103.975V69.9066H114.765V73.8083H99.0807V55.8352Z" fill="black"/>
<path d="M130.204 73.8083L127.403 68.6943H121.96V73.8083H117.061V55.8352H126.93C131.853 55.8352 134.543 58.0381 134.543 62.4051C134.581 63.4685 134.327 64.5228 133.808 65.456C133.288 66.3893 132.523 67.1663 131.593 67.7058L135.04 73.8083H130.204ZM121.96 65.0128H126.622C128.603 65.0128 129.66 64.1095 129.66 62.4206C129.66 60.7311 128.603 59.836 126.622 59.836H121.96V65.0128Z" fill="black"/>
<path d="M135.806 68.4223H140.245C140.356 70.0414 141.661 71.0213 144.525 71.0213C147.184 71.0213 148.553 70.2115 148.553 68.9076C148.553 67.8389 147.761 67.1991 145.72 66.859L143.441 66.4625C139.96 65.8636 136.321 65.086 136.321 60.7945C136.321 57.2156 139.256 55.0537 144.581 55.0537C149.518 55.0537 152.928 56.6731 152.928 61.5312H148.505C148.244 60.0008 147.049 58.9725 144.462 58.9725C142.136 58.9725 141.004 59.7824 141.004 61.0049C141.004 61.9606 141.701 62.6247 143.378 62.9405L145.356 63.2968C148.885 63.936 153.403 64.3816 153.403 69.0535C153.403 72.908 150.38 74.9969 144.51 74.9808C138.639 74.9646 135.743 72.9241 135.806 68.4223Z" fill="black"/>
<path d="M155.315 55.8352H171V59.7374H160.21V63.1244H170.63V66.4959H160.21V69.9066H171V73.8083H155.315V55.8352Z" fill="black"/>
</g>
<g id="Vector_4">
<path d="M65.5784 94.1253L62.356 81.6217H64.395L66.8844 91.3868L69.5645 81.6217H71.3591L74.0246 91.3868L76.5061 81.6217H78.4232L75.208 94.1253H72.9935L70.4889 84.9661L67.9764 94.1253H65.5784Z" fill="#959595"/>
<path d="M83.1892 94.5144C82.6124 94.5259 82.0401 94.413 81.5063 94.1818C80.9724 93.9501 80.4882 93.6054 80.0835 93.1685C79.2646 92.2871 78.8053 91.0968 78.8053 89.857C78.8053 88.6165 79.2646 87.4268 80.0835 86.5449C80.6953 85.8779 81.4809 85.4208 82.3387 85.2335C83.1965 85.0462 84.0871 85.1367 84.8964 85.4935C85.7051 85.8503 86.3953 86.4572 86.8778 87.2354C87.3603 88.0136 87.6126 88.9283 87.603 89.861C87.6166 90.4754 87.511 91.087 87.292 91.656C87.0731 92.2255 86.7463 92.7402 86.3321 93.1685C85.9224 93.61 85.4325 93.9576 84.8918 94.1887C84.3512 94.4205 83.7716 94.5311 83.1892 94.5144ZM81.3466 91.8629C81.8426 92.3719 82.504 92.6555 83.1926 92.6555C83.8811 92.6555 84.5425 92.3719 85.0386 91.8629C85.5172 91.3211 85.7835 90.6051 85.7835 89.861C85.7835 89.1168 85.5172 88.4009 85.0386 87.8585C84.5425 87.3501 83.8811 87.0659 83.1926 87.0659C82.504 87.0659 81.8426 87.3501 81.3466 87.8585C80.8646 88.3986 80.596 89.1157 80.596 89.861C80.596 90.6063 80.8646 91.3228 81.3466 91.8629Z" fill="#959595"/>
<path d="M91.4164 86.791C91.6342 86.2647 92.0123 85.8226 92.496 85.5275C92.9796 85.2324 93.544 85.0992 94.1072 85.1482V87.2135C93.4356 87.153 92.7646 87.3369 92.2161 87.7317C91.9367 87.9663 91.7183 88.266 91.5806 88.605C91.4423 88.9439 91.3887 89.3122 91.4243 89.6765V94.1253H89.5167V85.3079H91.4085L91.4164 86.791Z" fill="#959595"/>
<path d="M95.2551 94.1253V81.2314H97.1677V94.1253H95.2551Z" fill="#959595"/>
<path d="M106.015 81.6217H107.879V94.274H106.015V92.9829C105.675 93.4826 105.22 93.8838 104.692 94.1513C104.165 94.4181 103.582 94.5421 102.997 94.5115C102.426 94.5196 101.861 94.4003 101.338 94.1622C100.815 93.9242 100.346 93.5725 99.963 93.1299C99.1497 92.2122 98.6983 91.0063 98.6983 89.7544C98.6983 88.5024 99.1497 87.2965 99.963 86.3788C100.348 85.939 100.817 85.5897 101.34 85.3528C101.863 85.1165 102.428 84.9978 102.997 85.0058C103.581 84.9747 104.163 85.0975 104.691 85.3632C105.218 85.6289 105.673 86.0284 106.015 86.5258V81.6217ZM101.335 91.822C101.858 92.3534 102.557 92.6509 103.285 92.6509C104.013 92.6509 104.713 92.3534 105.235 91.822C105.736 91.2617 106.015 90.5227 106.015 89.7544C106.015 88.9866 105.736 88.247 105.235 87.6867C104.713 87.1553 104.013 86.8579 103.285 86.8579C102.557 86.8579 101.858 87.1553 101.335 87.6867C100.834 88.247 100.556 88.9866 100.556 89.7544C100.556 90.5227 100.834 91.2617 101.335 91.822Z" fill="#959595"/>
</g>
</g>
<defs>
<linearGradient id="paint0_linear_1381_3621" x1="84.7716" y1="31.9971" x2="134.649" y2="9.02614" gradientUnits="userSpaceOnUse">
<stop offset="0.08" stop-color="#FFE100"/>
<stop offset="0.2" stop-color="#FFD300"/>
<stop offset="0.7" stop-color="#FF9E00"/>
<stop offset="0.94" stop-color="#FF8900"/>
</linearGradient>
</defs>
</svg>
