<svg width="58" height="60" viewBox="0 0 58 60" fill="none" xmlns="http://www.w3.org/2000/svg">
<g id="Group">
<path id="Vector" d="M6.00069 31.0003V7.00098H2.0008C0.897829 7.00098 0.000854492 7.89795 0.000854492 9.00092V31.5373C0.589838 31.1953 1.27282 31.0003 2.0008 31.0003H6.00069Z" fill="#234A80"/>
<path id="Vector_2" d="M25.1291 9.00098H25.0001C24.4491 9.00098 24.0001 9.44996 24.0001 10.0009C24.0001 10.5519 24.4491 11.0009 25.0001 11.0009H26.1981L26.1271 9.93495C26.0921 9.41097 25.6531 9.00098 25.1291 9.00098Z" fill="#26A9E0"/>
<path id="Vector_3" d="M23.0002 33.2364V24.0007V23.0007C23.0002 21.4378 22.4072 20.1058 21.3723 19.2538C19.6493 17.8349 18.4083 16.0159 17.6964 14.001H8.00063V33.0004H2.0008C0.897829 33.0004 0.000854492 33.8974 0.000854492 35.0004V36.0004C0.000854492 37.1033 0.897829 38.0003 2.0008 38.0003H25.3821L23.0002 33.2364ZM10.0006 16.0009H18.0003V18.0009H10.0006V16.0009ZM10.0006 20.0008H16.0004V22.0008H10.0006V20.0008ZM19.0003 35.0004H11.0005V29.0006H19.0003V35.0004ZM20.0003 26.0006H10.0006V24.0007H20.0003V26.0006ZM20.0003 22.0008H18.0003V20.0008H20.0003V22.0008Z" fill="#234A80"/>
<path id="Vector_4" d="M36.9999 54H21.0003V57.9999H15.0005V59.9998H42.9997V57.9999H36.9999V54Z" fill="#234A80"/>
<path id="Vector_5" d="M33.9998 10.0009C33.9998 9.44996 33.5508 9.00098 32.9998 9.00098H32.8708C32.3469 9.00098 31.9079 9.41097 31.8729 9.93495L31.8019 11.0009H32.9998C33.5508 11.0009 33.9998 10.5519 33.9998 10.0009Z" fill="#26A9E0"/>
<path id="Vector_6" d="M25.0001 24.001H32.9999V32.0008H25.0001V24.001Z" fill="#26A9E0"/>
<path id="Vector_7" d="M29.665 13.001H28.3351L28.9351 22.0007H29.0651L29.665 13.001Z" fill="#26A9E0"/>
<path id="Vector_8" d="M22.6442 17.7102C23.9202 18.7612 24.7322 20.2921 24.9452 22.0011H26.9321L26.3321 13.0013H25.0002C23.3462 13.0013 22.0002 11.6554 22.0002 10.0014C22.0002 8.34746 23.3462 7.00149 25.0002 7.00149H25.1292C26.7021 7.00149 28.0171 8.23146 28.1221 9.80142L28.2021 11.0014H29.798L29.878 9.80241C29.983 8.23146 31.298 7.00149 32.8709 7.00149H32.9999C34.6539 7.00149 35.9999 8.34746 35.9999 10.0014C35.9999 11.6554 34.6539 13.0013 32.9999 13.0013H31.669L31.069 22.0011H33.0439C33.2429 20.3451 34.1039 18.7762 35.4739 17.6122C37.7148 15.7082 38.9998 12.9343 38.9998 10.0014C38.9998 7.15949 37.7838 4.44257 35.6649 2.54562C33.5159 0.623674 30.739 -0.258301 27.8441 0.0656898C23.4612 0.555676 19.7943 4.06258 19.1243 8.40346C18.5743 11.9634 19.8903 15.4423 22.6442 17.7102Z" fill="#26A9E0"/>
<path id="Vector_9" d="M28.447 39.6588C28.658 40.0808 29.3419 40.0798 29.5519 39.6588L32.3819 34.001H25.618L28.447 39.6588Z" fill="#26A9E0"/>
<path id="Vector_10" d="M49.9995 43.9999C49.9995 45.1029 49.1025 45.9998 47.9995 45.9998H10.0006C8.89765 45.9998 8.00068 45.1029 8.00068 43.9999V40H6.00073V48.9997C6.00073 50.6537 7.34669 51.9997 9.00065 51.9997H19.0004H38.9998H48.9995C50.6535 51.9997 51.9994 50.6537 51.9994 48.9997V40H49.9995V43.9999ZM25.0002 49.9997C24.4482 49.9997 24.0002 49.5517 24.0002 48.9997C24.0002 48.4478 24.4482 47.9998 25.0002 47.9998C25.5522 47.9998 26.0002 48.4478 26.0002 48.9997C26.0002 49.5517 25.5522 49.9997 25.0002 49.9997ZM29.0001 49.9997C28.4481 49.9997 28.0001 49.5517 28.0001 48.9997C28.0001 48.4478 28.4481 47.9998 29.0001 47.9998C29.5521 47.9998 30.0001 48.4478 30.0001 48.9997C30.0001 49.5517 29.5521 49.9997 29.0001 49.9997ZM33 49.9997C32.448 49.9997 32 49.5517 32 48.9997C32 48.4478 32.448 47.9998 33 47.9998C33.552 47.9998 33.9999 48.4478 33.9999 48.9997C33.9999 49.5517 33.552 49.9997 33 49.9997Z" fill="#234A80"/>
<path id="Vector_11" d="M29.0001 41.9999C28.0011 41.9999 27.1041 41.445 26.6581 40.552L26.3821 40H10.0006V43.9999H47.9995V40H31.618L31.342 40.553C30.896 41.445 29.999 41.9999 29.0001 41.9999Z" fill="#234A80"/>
<path id="Vector_12" d="M55.9993 14.001H40.3037C39.6057 15.9699 38.4018 17.7479 36.7678 19.1358C35.6448 20.0908 34.9999 21.4028 34.9999 22.7367V24.0007V33.2364L32.6179 38.0003H55.9993C56.7312 38.0003 57.4082 38.2123 57.9992 38.5563V16.0009C57.9992 14.898 57.1022 14.001 55.9993 14.001ZM39.9997 16.0009H43.9996V18.0009H39.9997V16.0009ZM39.9997 28.0006H41.9997V30.0005H39.9997V28.0006ZM49.9994 34.0004H39.9997V32.0005H49.9994V34.0004ZM55.9993 34.0004H51.9994V32.0005H55.9993V34.0004ZM55.9993 30.0005H43.9996V28.0006H55.9993V30.0005ZM55.9993 26.0006H39.9997V24.0007H55.9993V26.0006ZM55.9993 22.0008H39.9997V20.0008H55.9993V22.0008ZM55.9993 18.0009H45.9995V16.0009H55.9993V18.0009Z" fill="#234A80"/>
<path id="Vector_13" d="M55.9993 40H53.9994V43.9999H55.9993C57.1023 43.9999 57.9993 43.1029 57.9993 41.9999C57.9993 40.897 57.1023 40 55.9993 40Z" fill="#234A80"/>
</g>
</svg>
