<svg width="60" height="61" viewBox="0 0 60 61" fill="none" xmlns="http://www.w3.org/2000/svg">
<g id="Layer_x0020_1">
<path id="Vector" fill-rule="evenodd" clip-rule="evenodd" d="M50.625 40.5469H9.375C7.96875 40.5469 6.79688 39.375 6.79688 37.9688V9.72656H53.2031V37.8516C53.2031 39.375 52.0312 40.5469 50.625 40.5469ZM17.3438 23.6719C17.3438 23.6719 17.3438 23.6719 17.2266 23.6719C16.7578 23.5547 16.5234 23.2031 16.6406 22.7344L18.2812 14.1797C18.2812 13.7109 18.75 13.3594 19.2188 13.4766C19.6875 13.5938 19.9219 14.0625 19.8047 14.4141L18.1641 23.0859C18.1641 23.4375 17.8125 23.6719 17.3438 23.6719ZM15.1172 22.8516C14.8828 22.8516 14.6484 22.7344 14.5312 22.6172L11.0156 19.1016C10.6641 18.8672 10.6641 18.2812 11.0156 18.0469L14.5312 14.5312C14.7656 14.1797 15.3516 14.1797 15.5859 14.5312C15.9375 14.8828 15.9375 15.3516 15.5859 15.7031L12.7734 18.6328L15.5859 21.4453C15.9375 21.7969 15.9375 22.2656 15.5859 22.6172C15.4688 22.7344 15.2344 22.8516 15.1172 22.8516ZM21.3281 22.8516C21.2109 22.8516 20.9766 22.7344 20.8594 22.6172C20.5078 22.2656 20.5078 21.7969 20.8594 21.4453L23.6719 18.6328L20.8594 15.7031C20.5078 15.3516 20.5078 14.8828 20.8594 14.5312C21.0938 14.1797 21.6797 14.1797 21.9141 14.5312L25.4297 18.0469C25.7812 18.2812 25.7812 18.8672 25.4297 19.1016L21.9141 22.6172C21.7969 22.7344 21.5625 22.8516 21.3281 22.8516ZM35.7422 19.5703H27.8906C27.4219 19.5703 27.0703 19.2188 27.0703 18.75C27.0703 18.3984 27.4219 17.9297 27.8906 17.9297H35.7422C36.2109 17.9297 36.5625 18.3984 36.5625 18.75C36.5625 19.2188 36.2109 19.5703 35.7422 19.5703ZM38.3203 23.6719H27.8906C27.5391 23.6719 27.0703 23.3203 27.0703 22.8516C27.0703 22.3828 27.5391 22.0312 27.8906 22.0312H38.3203C38.7891 22.0312 39.1406 22.3828 39.1406 22.8516C39.1406 23.3203 38.7891 23.6719 38.3203 23.6719ZM48.3984 23.6719H41.25C40.7812 23.6719 40.4297 23.3203 40.4297 22.8516V14.2969C40.4297 13.8281 40.7812 13.4766 41.25 13.4766H48.3984C48.8672 13.4766 49.2188 13.8281 49.2188 14.2969V22.8516C49.2188 23.3203 48.8672 23.6719 48.3984 23.6719ZM41.9531 22.0312H47.5781V15.1172H41.9531V22.0312ZM29.8828 36.7969H12.5391C12.0703 36.7969 11.7188 36.4453 11.7188 35.9766V27.4219C11.7188 26.9531 12.0703 26.6016 12.5391 26.6016H29.8828C30.2344 26.6016 30.7031 26.9531 30.7031 27.4219V35.9766C30.7031 36.4453 30.2344 36.7969 29.8828 36.7969ZM13.3594 35.1562H29.0625V28.2422H13.3594V35.1562ZM48.3984 28.2422H35.1562C34.6875 28.2422 34.3359 27.8906 34.3359 27.4219C34.3359 26.9531 34.6875 26.6016 35.1562 26.6016H48.3984C48.8672 26.6016 49.2188 26.9531 49.2188 27.4219C49.2188 27.8906 48.8672 28.2422 48.3984 28.2422ZM48.3984 32.4609H35.1562C34.6875 32.4609 34.3359 32.1094 34.3359 31.6406C34.3359 31.1719 34.6875 30.8203 35.1562 30.8203H48.3984C48.8672 30.8203 49.2188 31.1719 49.2188 31.6406C49.2188 32.1094 48.8672 32.4609 48.3984 32.4609ZM48.3984 36.7969H35.1562C34.6875 36.7969 34.3359 36.4453 34.3359 35.9766C34.3359 35.5078 34.6875 35.1562 35.1562 35.1562H48.3984C48.8672 35.1562 49.2188 35.5078 49.2188 35.9766C49.2188 36.4453 48.8672 36.7969 48.3984 36.7969ZM12.4219 6.32812C11.25 6.32812 10.1953 5.27344 10.1953 4.10156C10.1953 2.8125 11.25 1.75781 12.4219 1.75781C13.7109 1.75781 14.7656 2.8125 14.7656 4.10156C14.7656 5.27344 13.7109 6.32812 12.4219 6.32812ZM12.4219 3.39844C12.0703 3.39844 11.8359 3.75 11.8359 4.10156C11.8359 4.45312 12.0703 4.6875 12.4219 4.6875C12.7734 4.6875 13.125 4.45312 13.125 4.10156C13.125 3.75 12.7734 3.39844 12.4219 3.39844ZM18.0469 6.32812C16.7578 6.32812 15.8203 5.27344 15.8203 4.10156C15.8203 2.8125 16.7578 1.75781 18.0469 1.75781C19.3359 1.75781 20.3906 2.8125 20.3906 4.10156C20.3906 5.27344 19.3359 6.32812 18.0469 6.32812ZM18.0469 3.39844C17.6953 3.39844 17.4609 3.75 17.4609 4.10156C17.4609 4.45312 17.6953 4.6875 18.0469 4.6875C18.3984 4.6875 18.75 4.45312 18.75 4.10156C18.75 3.75 18.3984 3.39844 18.0469 3.39844ZM23.6719 6.32812C22.3828 6.32812 21.4453 5.27344 21.4453 4.10156C21.4453 2.8125 22.3828 1.75781 23.6719 1.75781C24.9609 1.75781 26.0156 2.8125 26.0156 4.10156C26.0156 5.27344 24.9609 6.32812 23.6719 6.32812ZM23.6719 3.39844C23.3203 3.39844 23.0859 3.75 23.0859 4.10156C23.0859 4.45312 23.3203 4.6875 23.6719 4.6875C24.0234 4.6875 24.375 4.45312 24.375 4.10156C24.375 3.75 24.0234 3.39844 23.6719 3.39844ZM6.79688 8.08594V5.03906C6.79688 2.34375 9.02344 0 11.8359 0H48.1641C50.9766 0 53.2031 2.34375 53.2031 5.03906V8.08594H6.79688Z" fill="#26A9E0"/>
<path id="Vector_2" fill-rule="evenodd" clip-rule="evenodd" d="M56.7188 52.9688H3.28125C1.52344 52.9688 0 51.4453 0 49.6875V45.3516H60V49.6875C60 51.4453 58.4766 52.9688 56.7188 52.9688ZM31.875 50.0391H28.125C27.6562 50.0391 27.3047 49.5703 27.3047 49.2188C27.3047 48.75 27.6562 48.3984 28.125 48.3984H31.875C32.3438 48.3984 32.6953 48.75 32.6953 49.2188C32.6953 49.5703 32.3438 50.0391 31.875 50.0391ZM0 43.7109V13.2422C0 11.4844 1.52344 10.0781 3.28125 10.0781H5.15625V37.9688C5.15625 40.1953 7.03125 42.0703 9.375 42.0703H50.625C52.9688 42.0703 54.8438 40.1953 54.8438 37.8516V10.0781H56.7188C58.4766 10.0781 60 11.4844 60 13.2422V43.7109H0Z" fill="#234A80"/>
<path id="Vector_3" fill-rule="evenodd" clip-rule="evenodd" d="M37.4996 60.8203H22.4996C22.148 60.8203 21.7965 60.4688 21.7965 60.1172C21.6793 59.6484 21.9137 59.2969 22.3824 59.1797C23.0855 59.0625 23.5543 58.2422 23.9058 57.3047H36.0933C36.4449 58.2422 36.9137 59.0625 37.734 59.1797C38.0855 59.2969 38.3199 59.6484 38.3199 60.1172C38.2027 60.4688 37.8512 60.8203 37.4996 60.8203ZM24.3746 55.6641C24.3746 55.3125 24.4918 54.9609 24.4918 54.4922H35.5074C35.6246 54.9609 35.6246 55.3125 35.7418 55.6641H24.3746Z" fill="#234A80"/>
</g>
</svg>
