<svg width="58" height="58" viewBox="0 0 58 58" fill="none" xmlns="http://www.w3.org/2000/svg">
<g id="Digital Marketing">
<path id="Vector" d="M18.1245 0.0251733C17.8495 0.0251733 18.8495 0.0251733 2.74954 0.0251733C2.13704 0.0251733 1.32454 -0.724826 10.2495 5.96267L18.1245 0.0251733Z" fill="#234A80"/>
<path id="Vector_2" d="M20.25 12.5252C20.25 1.6627 20.3125 2.2502 20.1 1.7002C10.175 9.1377 10.8375 8.7752 10.25 8.7752C9.6625 8.7752 10.25 9.0752 0.4 1.7002C0.25 2.2627 0.25 1.72519 0.25 12.5252C0.25 13.1882 0.513392 13.8241 0.982233 14.293C1.45107 14.7618 2.08696 15.0252 2.75 15.0252H17.75C18.413 15.0252 19.0489 14.7618 19.5178 14.293C19.9866 13.8241 20.25 13.1882 20.25 12.5252Z" fill="#234A80"/>
<path id="Vector_3" d="M46.5 9.26267L49.95 7.52517L46.5 5.80017V9.26267Z" fill="#234A80"/>
<path id="Vector_4" d="M55.25 0.0251465H40.25C39.587 0.0251465 38.9511 0.288539 38.4822 0.75738C38.0134 1.22622 37.75 1.86211 37.75 2.52515V12.5251C37.75 13.1882 38.0134 13.8241 38.4822 14.2929C38.9511 14.7618 39.587 15.0251 40.25 15.0251H55.25C55.913 15.0251 56.5489 14.7618 57.0178 14.2929C57.4866 13.8241 57.75 13.1882 57.75 12.5251V2.52515C57.75 1.86211 57.4866 1.22622 57.0178 0.75738C56.5489 0.288539 55.913 0.0251465 55.25 0.0251465ZM51.075 9.76265C47.325 11.6126 47.325 11.7501 46.5 11.7501C45.837 11.7501 45.2011 11.4868 44.7322 11.0179C44.2634 10.5491 44 9.91319 44 9.25015C44 6.20015 43.65 4.62515 45.25 3.67515C46.85 2.72515 47.8875 3.67515 51.1375 5.28765C51.5507 5.50074 51.8963 5.82482 52.1355 6.22349C52.3746 6.62217 52.4979 7.07963 52.4914 7.54449C52.4849 8.00935 52.3489 8.4632 52.0987 8.85503C51.8485 9.24687 51.494 9.56118 51.075 9.76265Z" fill="#234A80"/>
<path id="Vector_5" d="M47.75 50.0251C49.1307 50.0251 50.25 48.9059 50.25 47.5251C50.25 46.1444 49.1307 45.0251 47.75 45.0251C46.3693 45.0251 45.25 46.1444 45.25 47.5251C45.25 48.9059 46.3693 50.0251 47.75 50.0251Z" fill="#234A80"/>
<path id="Vector_6" d="M56.5875 45.0251C56.3567 45.0263 56.1308 44.9588 55.9385 44.8312C55.7462 44.7035 55.5963 44.5215 55.5078 44.3083C55.4193 44.0952 55.3963 43.8605 55.4417 43.6342C55.487 43.4079 55.5987 43.2002 55.7625 43.0376C55.9785 42.8199 56.0997 42.5256 56.0997 42.2189C56.0997 41.9122 55.9785 41.6179 55.7625 41.4001L53.875 39.5126C53.7689 39.4026 53.6417 39.3151 53.501 39.2554C53.3604 39.1956 53.2091 39.1648 53.0562 39.1648C52.9034 39.1648 52.7521 39.1956 52.6115 39.2554C52.4708 39.3151 52.3436 39.4026 52.2375 39.5126C52.0749 39.6764 51.8672 39.7881 51.6409 39.8335C51.4146 39.8788 51.18 39.8558 50.9668 39.7673C50.7537 39.6788 50.5717 39.5289 50.444 39.3366C50.3163 39.1444 50.2488 38.9184 50.25 38.6876C50.25 38.3793 50.1275 38.0836 49.9095 37.8656C49.6915 37.6476 49.3958 37.5251 49.0875 37.5251H46.4125C46.1042 37.5251 45.8085 37.6476 45.5905 37.8656C45.3725 38.0836 45.25 38.3793 45.25 38.6876C45.2512 38.9184 45.1837 39.1444 45.056 39.3366C44.9283 39.5289 44.7463 39.6788 44.5332 39.7673C44.32 39.8558 44.0854 39.8788 43.8591 39.8335C43.6328 39.7881 43.4251 39.6764 43.2625 39.5126C43.1564 39.4026 43.0292 39.3151 42.8885 39.2554C42.7479 39.1956 42.5966 39.1648 42.4438 39.1648C42.2909 39.1648 42.1396 39.1956 41.999 39.2554C41.8583 39.3151 41.7311 39.4026 41.625 39.5126L39.7375 41.4001C39.629 41.5071 39.5429 41.6346 39.4841 41.7752C39.4253 41.9157 39.3951 42.0665 39.3951 42.2189C39.3951 42.3713 39.4253 42.5221 39.4841 42.6626C39.5429 42.8032 39.629 42.9307 39.7375 43.0376C39.8954 43.2025 40.0018 43.4097 40.0438 43.634C40.0859 43.8584 40.0616 44.0901 39.9741 44.3008C39.8866 44.5116 39.7397 44.6924 39.5511 44.821C39.3626 44.9496 39.1407 45.0206 38.9125 45.0251C38.6042 45.0251 38.3085 45.1476 38.0905 45.3656C37.8725 45.5836 37.75 45.8793 37.75 46.1876V48.8626C37.75 49.171 37.8725 49.4666 38.0905 49.6847C38.3085 49.9027 38.6042 50.0251 38.9125 50.0251C39.1433 50.024 39.3692 50.0915 39.5615 50.2191C39.7538 50.3468 39.9037 50.5288 39.9922 50.742C40.0807 50.9551 40.1037 51.1898 40.0583 51.4161C40.013 51.6424 39.9013 51.85 39.7375 52.0126C39.6275 52.1187 39.54 52.2459 39.4802 52.3866C39.4205 52.5273 39.3897 52.6786 39.3897 52.8314C39.3897 52.9842 39.4205 53.1355 39.4802 53.2762C39.54 53.4169 39.6275 53.544 39.7375 53.6501L41.625 55.5376C41.7311 55.6477 41.8583 55.7352 41.999 55.7949C42.1396 55.8547 42.2909 55.8855 42.4438 55.8855C42.5966 55.8855 42.7479 55.8547 42.8885 55.7949C43.0292 55.7352 43.1564 55.6477 43.2625 55.5376C43.4251 55.3739 43.6328 55.2622 43.8591 55.2168C44.0854 55.1715 44.32 55.1945 44.5332 55.283C44.7463 55.3714 44.9283 55.5214 45.056 55.7137C45.1837 55.9059 45.2512 56.1319 45.25 56.3626C45.25 56.671 45.3725 56.9666 45.5905 57.1847C45.8085 57.4027 46.1042 57.5251 46.4125 57.5251H49.0875C49.3958 57.5251 49.6915 57.4027 49.9095 57.1847C50.1275 56.9666 50.25 56.671 50.25 56.3626C50.2488 56.1319 50.3163 55.9059 50.444 55.7137C50.5717 55.5214 50.7537 55.3714 50.9668 55.283C51.18 55.1945 51.4146 55.1715 51.6409 55.2168C51.8672 55.2622 52.0749 55.3739 52.2375 55.5376C52.3436 55.6477 52.4708 55.7352 52.6115 55.7949C52.7521 55.8547 52.9034 55.8855 53.0562 55.8855C53.2091 55.8855 53.3604 55.8547 53.501 55.7949C53.6417 55.7352 53.7689 55.6477 53.875 55.5376L55.7625 53.6501C55.8725 53.544 55.96 53.4169 56.0198 53.2762C56.0795 53.1355 56.1103 52.9842 56.1103 52.8314C56.1103 52.6786 56.0795 52.5273 56.0198 52.3866C55.96 52.2459 55.8725 52.1187 55.7625 52.0126C55.5987 51.85 55.487 51.6424 55.4417 51.4161C55.3963 51.1898 55.4193 50.9551 55.5078 50.742C55.5963 50.5288 55.7462 50.3468 55.9385 50.2191C56.1308 50.0915 56.3567 50.024 56.5875 50.0251C56.8958 50.0251 57.1915 49.9027 57.4095 49.6847C57.6275 49.4666 57.75 49.171 57.75 48.8626V46.1876C57.75 45.8793 57.6275 45.5836 57.4095 45.3656C57.1915 45.1476 56.8958 45.0251 56.5875 45.0251ZM47.75 52.5251C46.7611 52.5251 45.7944 52.2319 44.9721 51.6825C44.1499 51.1331 43.509 50.3522 43.1306 49.4386C42.7522 48.5249 42.6531 47.5196 42.8461 46.5497C43.039 45.5798 43.5152 44.6889 44.2145 43.9896C44.9137 43.2904 45.8046 42.8141 46.7745 42.6212C47.7445 42.4283 48.7498 42.5273 49.6634 42.9057C50.577 43.2842 51.3579 43.925 51.9073 44.7473C52.4568 45.5695 52.75 46.5362 52.75 47.5251C52.75 48.8512 52.2232 50.123 51.2855 51.0607C50.3479 51.9984 49.0761 52.5251 47.75 52.5251Z" fill="#234A80"/>
<path id="Vector_7" d="M8.27463 38.2377L3.84963 42.6502C3.14738 43.3533 2.75293 44.3064 2.75293 45.3002C2.75293 46.2939 3.14738 47.247 3.84963 47.9502L7.38713 51.4877C8.09026 52.1899 9.04338 52.5844 10.0371 52.5844C11.0309 52.5844 11.984 52.1899 12.6871 51.4877L17.1121 47.0752L8.27463 38.2377Z" fill="#26A9E0"/>
<path id="Vector_8" d="M17.9879 49.7252L14.4629 53.2627L17.9879 56.7877C18.4683 57.1811 19.0779 57.3817 19.698 57.3503C20.3182 57.319 20.9044 57.058 21.3427 56.6181C21.781 56.1783 22.0399 55.5911 22.0691 54.9709C22.0982 54.3506 21.8955 53.7417 21.5004 53.2627L17.9879 49.7252Z" fill="#26A9E0"/>
<path id="Vector_9" d="M9.72461 36.1502L19.1871 45.6127L34.7871 38.2252L17.1121 20.5502L9.72461 36.1502Z" fill="#26A9E0"/>
<path id="Vector_10" d="M24.6504 24.5627L30.7754 30.6877C31.0029 29.8397 31.0032 28.9467 30.7761 28.0986C30.549 27.2505 30.1026 26.4771 29.4818 25.8563C28.8609 25.2355 28.0876 24.7891 27.2395 24.562C26.3913 24.3349 25.4984 24.3351 24.6504 24.5627Z" fill="#26A9E0"/>
<path id="Vector_11" d="M33.0124 23.5752C33.6999 23.5752 33.7249 23.3752 36.5499 20.5502C36.7853 20.3165 36.9182 19.9988 36.9194 19.6671C36.9206 19.3354 36.7899 19.0168 36.5562 18.7814C36.3225 18.5461 36.0048 18.4132 35.6731 18.412C35.3414 18.4108 35.0228 18.5415 34.7874 18.7752L32.1374 21.4252C31.9576 21.5986 31.8337 21.8219 31.782 22.0663C31.7302 22.3107 31.7529 22.565 31.8471 22.7964C31.9413 23.0278 32.1026 23.2257 32.3103 23.3645C32.5181 23.5033 32.7626 23.5767 33.0124 23.5752Z" fill="#26A9E0"/>
<path id="Vector_12" d="M29 20.0251V16.2751C29 15.9436 28.8683 15.6257 28.6339 15.3913C28.3995 15.1568 28.0815 15.0251 27.75 15.0251C27.4185 15.0251 27.1005 15.1568 26.8661 15.3913C26.6317 15.6257 26.5 15.9436 26.5 16.2751V20.0251C26.5 20.3567 26.6317 20.6746 26.8661 20.909C27.1005 21.1435 27.4185 21.2751 27.75 21.2751C28.0815 21.2751 28.3995 21.1435 28.6339 20.909C28.8683 20.6746 29 20.3567 29 20.0251Z" fill="#26A9E0"/>
<path id="Vector_13" d="M39 26.2751H35.25C34.9185 26.2751 34.6005 26.4068 34.3661 26.6413C34.1317 26.8757 34 27.1936 34 27.5251C34 27.8567 34.1317 28.1746 34.3661 28.409C34.6005 28.6435 34.9185 28.7751 35.25 28.7751H39C39.3315 28.7751 39.6495 28.6435 39.8839 28.409C40.1183 28.1746 40.25 27.8567 40.25 27.5251C40.25 27.1936 40.1183 26.8757 39.8839 26.6413C39.6495 26.4068 39.3315 26.2751 39 26.2751Z" fill="#26A9E0"/>
</g>
</svg>
