<svg width="44" height="60" viewBox="0 0 44 60" fill="none" xmlns="http://www.w3.org/2000/svg">
<g id="Group">
<path id="Vector" d="M30.7891 47.5781H34.3047V51.0938H30.7891V47.5781Z" fill="#26A9E0"/>
<path id="Vector_2" d="M11.4531 60C14.5645 60 17.3323 58.6274 19.2629 56.4844H24.7371C26.6677 58.6274 29.4355 60 32.5469 60C38.3718 60 43.0938 55.1609 43.0938 49.3359C43.0938 43.511 38.3718 38.7891 32.5469 38.7891H11.4531C5.6282 38.7891 0.90625 43.511 0.90625 49.3359C0.90625 55.1609 5.6282 60 11.4531 60ZM27.2734 47.5781H30.7891V44.0625H34.3047V47.5781H37.8203V51.0938H34.3047V54.6094H30.7891V51.0938H27.2734V47.5781ZM6.17969 47.5781H9.69531V44.0625H13.2109V47.5781H16.7266V51.0938H13.2109V54.6094H9.69531V51.0938H6.17969V47.5781Z" fill="#26A9E0"/>
<path id="Vector_3" d="M9.69531 47.5781H13.2109V51.0938H9.69531V47.5781Z" fill="#26A9E0"/>
<path id="Vector_4" d="M30.7891 10.5468H40.306L30.7891 1.02991V10.5468Z" fill="#234A80"/>
<path id="Vector_5" d="M18.4209 21.0938H20.2422V28.2422H23.7579V21.0938H25.5792L22 16.1722L18.4209 21.0938Z" fill="#234A80"/>
<path id="Vector_6" d="M2.66406 0V38.4479C5.07953 36.4937 8.11152 35.2734 11.4531 35.2734H32.5469C35.8885 35.2734 38.9205 36.4937 41.3359 38.4479V14.0625H27.2734V0H2.66406ZM32.4834 24.6094H27.2734V31.7578H16.7266V24.6094H11.5166L22 10.195L32.4834 24.6094Z" fill="#234A80"/>
</g>
</svg>
