<svg width="14" height="14" viewBox="0 0 14 14" fill="none" xmlns="http://www.w3.org/2000/svg">
<g id="star 1">
<path id="Vector" d="M13.086 6.0157L10.3608 8.6722L11.0044 12.4242C11.0324 12.5883 10.965 12.7541 10.8303 12.8521C10.7541 12.9076 10.6636 12.9356 10.573 12.9356C10.5034 12.9356 10.4334 12.919 10.3696 12.8853L6.99995 11.1139L3.63076 12.8849C3.48376 12.9628 3.30482 12.9501 3.17007 12.8516C3.03532 12.7536 2.96795 12.5878 2.99595 12.4238L3.63951 8.67176L0.913884 6.0157C0.794884 5.89932 0.751572 5.7252 0.803197 5.56726C0.854822 5.40932 0.991759 5.29338 1.1567 5.26932L4.92313 4.72245L6.60751 1.30907C6.75495 1.01026 7.24495 1.01026 7.39238 1.30907L9.07676 4.72245L12.8432 5.26932C13.0081 5.29338 13.1451 5.40888 13.1967 5.56726C13.2483 5.72563 13.205 5.89888 13.086 6.0157Z" fill="#234A80"/>
</g>
</svg>
